<mxfile host="app.diagrams.net" agent="Mozilla/5.0 (Windows NT 10.0; Win64; x64) AppleWebKit/537.36 (KHTML, like Gecko) Chrome/137.0.0.0 Safari/537.36" version="27.1.6">
  <diagram name="Page-1" id="3Yk0INAcXBTNKlfgf9x4">
    <mxGraphModel dx="1869" dy="527" grid="1" gridSize="10" guides="1" tooltips="1" connect="1" arrows="1" fold="1" page="1" pageScale="1" pageWidth="827" pageHeight="1169" math="0" shadow="0">
      <root>
        <mxCell id="0" />
        <mxCell id="1" parent="0" />
        <mxCell id="Xp83edgv-1D5uqsxEIea-2" value="Actor" style="shape=umlActor;verticalLabelPosition=bottom;verticalAlign=top;html=1;outlineConnect=0;" parent="1" vertex="1">
          <mxGeometry x="20" y="245" width="30" height="60" as="geometry" />
        </mxCell>
        <mxCell id="Xp83edgv-1D5uqsxEIea-28" value="" style="whiteSpace=wrap;html=1;aspect=fixed;" parent="1" vertex="1">
          <mxGeometry x="-10" y="20" width="800" height="800" as="geometry" />
        </mxCell>
        <object label="" id="Xp83edgv-1D5uqsxEIea-30">
          <mxCell style="outlineConnect=0;dashed=0;verticalLabelPosition=bottom;verticalAlign=top;align=center;html=1;shape=mxgraph.aws3.api_gateway;fillColor=#D9A741;gradientColor=none;" parent="1" vertex="1">
            <mxGeometry x="110" y="230" width="50" height="70" as="geometry" />
          </mxCell>
        </object>
        <mxCell id="Xp83edgv-1D5uqsxEIea-32" value="" style="editableCssRules=.*;html=1;shape=image;verticalLabelPosition=bottom;labelBackgroundColor=#ffffff;verticalAlign=top;aspect=fixed;imageAspect=0;image=data:image/svg+xml,PHN2ZyB4bWxucz0iaHR0cDovL3d3dy53My5vcmcvMjAwMC9zdmciIHhtbG5zOnY9Imh0dHBzOi8vdmVjdGEuaW8vbmFubyIgd2lkdGg9IjM3Ny4xNTkzMDIxNjAyNjMwNSIgaGVpZ2h0PSIzMzYuMTYyNDk5MDAzMzEwOCIgdmlld0JveD0iLTAuMDU4MDAwMDA1NzgxNjUwNTQgMC4xMTI5OTk5OTgwMzMwNDY3MiA5OS43OTAwMDA5MTU1MjczNCA4OC45NDMwMDA3OTM0NTcwMyI+JiN4YTs8c3R5bGUgdHlwZT0idGV4dC9jc3MiPiYjeGE7CS5zdDB7ZmlsbDojNjY5ZGY2O30mI3hhOwkuc3Qxe2ZpbGw6I2FlY2JmYTt9JiN4YTsJLnN0MntmaWxsOiM0Mjg1ZjQ7fSYjeGE7PC9zdHlsZT4mI3hhOwk8cGF0aCBjbGFzcz0ic3QwIiBkPSJNNTMuMjQzIDYyLjA5VjQ3LjA5NGwxMy4yMDEgOC40MTZ2MTUuMDM4em0tMzMuMDIxIDBWNDcuMDk0bDEzLjIwMSA4LjQxNnYxNS4wMzh6bTE2LjUxMS0zMi4yODVWMTQuODFsMTMuMjAxIDguNDE2djE1LjAzOHptNjIuOTk5IDMzLjk2VjI1LjQwM2wtOS41NjItMS44ODR2NDIuMTMxem0tOTkuNzg4IDBWMjUuNDAzbDkuNTYyLTEuODg0djQyLjEzMXoiLz4mI3hhOwk8cGF0aCBjbGFzcz0ic3QxIiBkPSJNNTMuMTg1IDQ3LjA5NGwxMy4yNTgtOC4yODcgMTMuMDE2IDguMjM0LTEzLjAxNiA4LjQ2OXptLTMzLjAyMSAwbDEzLjI1OC04LjI4NyAxMy4wMTYgOC4yMzQtMTMuMDE2IDguNDY5ek0zNi42NzUgMTQuODFsMTMuMjU4LTguMjg3IDEzLjAxNiA4LjIzNC0xMy4wMTYgOC40Njl6bTYzLjA1NiA0OC45NTZ2MTIuMjE3TDc3LjAxIDg5LjA1NVY3Ny43NTJ6bTAtMzguMzYzVjEzLjE4Nkw3Ny4wMS4xMTN2MTEuMzAzek0tLjA1OCA2My43NjZ2MTIuMjE3bDIyLjcyMSAxMy4wNzNWNzcuNzUyem0wLTM4LjM2M1YxMy4xODZMMjIuNjYzLjExM3YxMS4zMDN6Ii8+JiN4YTsJPHBhdGggY2xhc3M9InN0MiIgZD0iTTY2LjQ0NCA3MC41NDdWNTUuNTFsMTMuMDE2LTguNDY5djE1LjR6bS0zMy4wMjEgMFY1NS41MWwxMy4wMTYtOC40Njl2MTUuNHptMTYuNTExLTMyLjI4NVYyMy4yMjVsMTMuMDE2LTguNDY5djE1LjR6bTQ5Ljc5OCAyNS41MDNsLTkuNTYyIDUuODh2LTMuOTk2em0wLTM4LjM2M2wtOS41NjItNS44OHYzLjk5NnpNLS4wNTggNjMuNzY2bDkuNTYyIDUuODh2LTMuOTk2em0wLTM4LjM2M2w5LjU2Mi01Ljg4djMuOTk2eiIvPiYjeGE7PC9zdmc+;" parent="1" vertex="1">
          <mxGeometry x="698" y="30.5" width="40" height="36" as="geometry" />
        </mxCell>
        <mxCell id="3mii3_M0ML0Bozv4xkw0-23" value="" style="edgeStyle=orthogonalEdgeStyle;rounded=0;orthogonalLoop=1;jettySize=auto;html=1;" edge="1" parent="1" source="Xp83edgv-1D5uqsxEIea-33" target="Xp83edgv-1D5uqsxEIea-44">
          <mxGeometry relative="1" as="geometry" />
        </mxCell>
        <mxCell id="3mii3_M0ML0Bozv4xkw0-27" value="" style="edgeStyle=orthogonalEdgeStyle;rounded=0;orthogonalLoop=1;jettySize=auto;html=1;" edge="1" parent="1" source="Xp83edgv-1D5uqsxEIea-33" target="3mii3_M0ML0Bozv4xkw0-25">
          <mxGeometry relative="1" as="geometry" />
        </mxCell>
        <mxCell id="Xp83edgv-1D5uqsxEIea-33" value="" style="image;aspect=fixed;html=1;points=[];align=center;fontSize=12;image=img/lib/azure2/integration/Service_Bus.svg;" parent="1" vertex="1">
          <mxGeometry x="296" y="335" width="129.3" height="114.09" as="geometry" />
        </mxCell>
        <mxCell id="Xp83edgv-1D5uqsxEIea-34" value="" style="image;aspect=fixed;html=1;points=[];align=center;fontSize=12;image=img/lib/azure2/security/Key_Vaults.svg;" parent="1" vertex="1">
          <mxGeometry x="698" y="87" width="43" height="43" as="geometry" />
        </mxCell>
        <mxCell id="Xp83edgv-1D5uqsxEIea-35" value="" style="image;aspect=fixed;html=1;points=[];align=center;fontSize=12;image=img/lib/azure2/analytics/Log_Analytics_Workspaces.svg;" parent="1" vertex="1">
          <mxGeometry x="698" y="143" width="43" height="43" as="geometry" />
        </mxCell>
        <mxCell id="Xp83edgv-1D5uqsxEIea-37" value="App GW" style="text;html=1;align=center;verticalAlign=middle;whiteSpace=wrap;rounded=0;" parent="1" vertex="1">
          <mxGeometry x="105" y="305" width="60" height="30" as="geometry" />
        </mxCell>
        <mxCell id="Xp83edgv-1D5uqsxEIea-38" value="Container Registry" style="text;html=1;align=center;verticalAlign=middle;whiteSpace=wrap;rounded=0;" parent="1" vertex="1">
          <mxGeometry x="730" y="33.5" width="60" height="30" as="geometry" />
        </mxCell>
        <mxCell id="Xp83edgv-1D5uqsxEIea-40" value="Service Bus" style="text;html=1;align=center;verticalAlign=middle;whiteSpace=wrap;rounded=0;" parent="1" vertex="1">
          <mxGeometry x="260" y="377.04" width="60" height="30" as="geometry" />
        </mxCell>
        <mxCell id="Xp83edgv-1D5uqsxEIea-41" value="Key vault" style="text;html=1;align=center;verticalAlign=middle;whiteSpace=wrap;rounded=0;" parent="1" vertex="1">
          <mxGeometry x="730" y="93.5" width="60" height="30" as="geometry" />
        </mxCell>
        <mxCell id="Xp83edgv-1D5uqsxEIea-42" value="Log analytics" style="text;html=1;align=center;verticalAlign=middle;whiteSpace=wrap;rounded=0;" parent="1" vertex="1">
          <mxGeometry x="730" y="145" width="60" height="30" as="geometry" />
        </mxCell>
        <mxCell id="Xp83edgv-1D5uqsxEIea-43" value="Tenant Service" style="rounded=1;whiteSpace=wrap;html=1;" parent="1" vertex="1">
          <mxGeometry x="314" y="130" width="96" height="40" as="geometry" />
        </mxCell>
        <mxCell id="3mii3_M0ML0Bozv4xkw0-33" value="" style="edgeStyle=orthogonalEdgeStyle;rounded=0;orthogonalLoop=1;jettySize=auto;html=1;" edge="1" parent="1" source="Xp83edgv-1D5uqsxEIea-44" target="Xp83edgv-1D5uqsxEIea-64">
          <mxGeometry relative="1" as="geometry" />
        </mxCell>
        <mxCell id="3mii3_M0ML0Bozv4xkw0-35" value="" style="edgeStyle=orthogonalEdgeStyle;rounded=0;orthogonalLoop=1;jettySize=auto;html=1;" edge="1" parent="1" source="Xp83edgv-1D5uqsxEIea-44" target="3mii3_M0ML0Bozv4xkw0-34">
          <mxGeometry relative="1" as="geometry" />
        </mxCell>
        <mxCell id="3mii3_M0ML0Bozv4xkw0-41" value="" style="edgeStyle=orthogonalEdgeStyle;rounded=0;orthogonalLoop=1;jettySize=auto;html=1;" edge="1" parent="1" source="Xp83edgv-1D5uqsxEIea-44" target="3mii3_M0ML0Bozv4xkw0-40">
          <mxGeometry relative="1" as="geometry" />
        </mxCell>
        <mxCell id="Xp83edgv-1D5uqsxEIea-44" value="Provisioning&lt;div&gt;Service&lt;/div&gt;" style="rounded=1;whiteSpace=wrap;html=1;" parent="1" vertex="1">
          <mxGeometry x="310.65" y="520" width="100" height="40" as="geometry" />
        </mxCell>
        <mxCell id="3mii3_M0ML0Bozv4xkw0-24" value="" style="edgeStyle=orthogonalEdgeStyle;rounded=0;orthogonalLoop=1;jettySize=auto;html=1;" edge="1" parent="1" source="Xp83edgv-1D5uqsxEIea-45" target="Xp83edgv-1D5uqsxEIea-33">
          <mxGeometry relative="1" as="geometry" />
        </mxCell>
        <mxCell id="Xp83edgv-1D5uqsxEIea-45" value="Ledger Service" style="rounded=1;whiteSpace=wrap;html=1;" parent="1" vertex="1">
          <mxGeometry x="310" y="233" width="100" height="40" as="geometry" />
        </mxCell>
        <mxCell id="Xp83edgv-1D5uqsxEIea-47" value="" style="shadow=0;dashed=0;html=1;strokeColor=none;fillColor=#4495D1;labelPosition=center;verticalLabelPosition=bottom;verticalAlign=top;align=center;outlineConnect=0;shape=mxgraph.veeam.proxy_server;" parent="1" vertex="1">
          <mxGeometry x="220" y="233" width="76" height="72" as="geometry" />
        </mxCell>
        <mxCell id="Xp83edgv-1D5uqsxEIea-48" value="Proxy Server" style="text;html=1;align=center;verticalAlign=middle;whiteSpace=wrap;rounded=0;" parent="1" vertex="1">
          <mxGeometry x="228" y="305" width="60" height="30" as="geometry" />
        </mxCell>
        <mxCell id="Xp83edgv-1D5uqsxEIea-63" value="" style="image;aspect=fixed;html=1;points=[];align=center;fontSize=12;image=img/lib/azure2/databases/Azure_Database_PostgreSQL_Server.svg;" parent="1" vertex="1">
          <mxGeometry x="531.5" y="118" width="48" height="64" as="geometry" />
        </mxCell>
        <mxCell id="Xp83edgv-1D5uqsxEIea-64" value="" style="image;aspect=fixed;html=1;points=[];align=center;fontSize=12;image=img/lib/azure2/databases/Azure_Database_PostgreSQL_Server.svg;" parent="1" vertex="1">
          <mxGeometry x="338" y="620" width="48" height="64" as="geometry" />
        </mxCell>
        <mxCell id="Xp83edgv-1D5uqsxEIea-65" value="" style="image;aspect=fixed;html=1;points=[];align=center;fontSize=12;image=img/lib/azure2/databases/Azure_Database_PostgreSQL_Server.svg;" parent="1" vertex="1">
          <mxGeometry x="690" y="360.04" width="48" height="64" as="geometry" />
        </mxCell>
        <mxCell id="Xp83edgv-1D5uqsxEIea-66" value="" style="image;aspect=fixed;html=1;points=[];align=center;fontSize=12;image=img/lib/azure2/databases/Azure_Database_PostgreSQL_Server.svg;" parent="1" vertex="1">
          <mxGeometry x="537.5" y="216" width="48" height="64" as="geometry" />
        </mxCell>
        <mxCell id="Xp83edgv-1D5uqsxEIea-67" value="" style="endArrow=block;startArrow=block;endFill=1;startFill=1;html=1;rounded=0;exitX=1;exitY=0.488;exitDx=0;exitDy=0;exitPerimeter=0;" parent="1" source="Xp83edgv-1D5uqsxEIea-43" edge="1">
          <mxGeometry width="160" relative="1" as="geometry">
            <mxPoint x="420" y="150" as="sourcePoint" />
            <mxPoint x="537.5" y="149.5" as="targetPoint" />
          </mxGeometry>
        </mxCell>
        <mxCell id="Xp83edgv-1D5uqsxEIea-69" value="" style="endArrow=block;startArrow=block;endFill=1;startFill=1;html=1;rounded=0;exitX=1;exitY=0.488;exitDx=0;exitDy=0;exitPerimeter=0;" parent="1" edge="1">
          <mxGeometry width="160" relative="1" as="geometry">
            <mxPoint x="406.25" y="253" as="sourcePoint" />
            <mxPoint x="533.75" y="252.5" as="targetPoint" />
          </mxGeometry>
        </mxCell>
        <mxCell id="3mii3_M0ML0Bozv4xkw0-29" value="" style="edgeStyle=orthogonalEdgeStyle;rounded=0;orthogonalLoop=1;jettySize=auto;html=1;" edge="1" parent="1" source="Xp83edgv-1D5uqsxEIea-74" target="Xp83edgv-1D5uqsxEIea-37">
          <mxGeometry relative="1" as="geometry" />
        </mxCell>
        <mxCell id="Xp83edgv-1D5uqsxEIea-74" value="Actor" style="shape=umlActor;verticalLabelPosition=bottom;verticalAlign=top;html=1;" parent="1" vertex="1">
          <mxGeometry y="245" width="30" height="60" as="geometry" />
        </mxCell>
        <mxCell id="Xp83edgv-1D5uqsxEIea-78" value="" style="html=1;verticalAlign=bottom;endArrow=block;curved=0;rounded=0;" parent="1" edge="1">
          <mxGeometry width="80" relative="1" as="geometry">
            <mxPoint x="160" y="268.5" as="sourcePoint" />
            <mxPoint x="240" y="268.5" as="targetPoint" />
          </mxGeometry>
        </mxCell>
        <mxCell id="3mii3_M0ML0Bozv4xkw0-30" value="" style="edgeStyle=orthogonalEdgeStyle;rounded=0;orthogonalLoop=1;jettySize=auto;html=1;" edge="1" parent="1" source="Xp83edgv-1D5uqsxEIea-79" target="Xp83edgv-1D5uqsxEIea-81">
          <mxGeometry relative="1" as="geometry" />
        </mxCell>
        <mxCell id="Xp83edgv-1D5uqsxEIea-79" value="Actor" style="shape=umlActor;verticalLabelPosition=bottom;verticalAlign=top;html=1;" parent="1" vertex="1">
          <mxGeometry y="110" width="30" height="60" as="geometry" />
        </mxCell>
        <object label="" id="Xp83edgv-1D5uqsxEIea-80">
          <mxCell style="outlineConnect=0;dashed=0;verticalLabelPosition=bottom;verticalAlign=top;align=center;html=1;shape=mxgraph.aws3.api_gateway;fillColor=#D9A741;gradientColor=none;" parent="1" vertex="1">
            <mxGeometry x="105" y="112" width="50" height="70" as="geometry" />
          </mxCell>
        </object>
        <mxCell id="Xp83edgv-1D5uqsxEIea-81" value="App GW" style="text;html=1;align=center;verticalAlign=middle;whiteSpace=wrap;rounded=0;" parent="1" vertex="1">
          <mxGeometry x="80" y="175" width="60" height="30" as="geometry" />
        </mxCell>
        <mxCell id="Xp83edgv-1D5uqsxEIea-83" value="" style="shadow=0;dashed=0;html=1;strokeColor=none;fillColor=#4495D1;labelPosition=center;verticalLabelPosition=bottom;verticalAlign=top;align=center;outlineConnect=0;shape=mxgraph.veeam.proxy_server;" parent="1" vertex="1">
          <mxGeometry x="212" y="114" width="76" height="72" as="geometry" />
        </mxCell>
        <mxCell id="Xp83edgv-1D5uqsxEIea-84" value="Proxy Server" style="text;html=1;align=center;verticalAlign=middle;whiteSpace=wrap;rounded=0;" parent="1" vertex="1">
          <mxGeometry x="220" y="186" width="60" height="30" as="geometry" />
        </mxCell>
        <mxCell id="3mii3_M0ML0Bozv4xkw0-1" value="" style="html=1;verticalAlign=bottom;endArrow=block;curved=0;rounded=0;" edge="1" parent="1">
          <mxGeometry width="80" relative="1" as="geometry">
            <mxPoint x="148" y="146.5" as="sourcePoint" />
            <mxPoint x="228" y="146.5" as="targetPoint" />
          </mxGeometry>
        </mxCell>
        <mxCell id="3mii3_M0ML0Bozv4xkw0-2" value="" style="endArrow=open;endFill=1;endSize=12;html=1;rounded=0;" edge="1" parent="1">
          <mxGeometry width="160" relative="1" as="geometry">
            <mxPoint x="270" y="147" as="sourcePoint" />
            <mxPoint x="310" y="147" as="targetPoint" />
          </mxGeometry>
        </mxCell>
        <mxCell id="3mii3_M0ML0Bozv4xkw0-12" value="" style="html=1;verticalAlign=bottom;startArrow=oval;startFill=1;endArrow=block;startSize=8;curved=0;rounded=0;entryX=0;entryY=0.5;entryDx=0;entryDy=0;" edge="1" parent="1" target="Xp83edgv-1D5uqsxEIea-45">
          <mxGeometry width="60" relative="1" as="geometry">
            <mxPoint x="270" y="252.5" as="sourcePoint" />
            <mxPoint x="300" y="253" as="targetPoint" />
          </mxGeometry>
        </mxCell>
        <mxCell id="3mii3_M0ML0Bozv4xkw0-28" value="" style="edgeStyle=orthogonalEdgeStyle;rounded=0;orthogonalLoop=1;jettySize=auto;html=1;" edge="1" parent="1" source="3mii3_M0ML0Bozv4xkw0-25" target="Xp83edgv-1D5uqsxEIea-65">
          <mxGeometry relative="1" as="geometry" />
        </mxCell>
        <mxCell id="3mii3_M0ML0Bozv4xkw0-36" value="" style="edgeStyle=orthogonalEdgeStyle;rounded=0;orthogonalLoop=1;jettySize=auto;html=1;" edge="1" parent="1" source="3mii3_M0ML0Bozv4xkw0-25" target="3mii3_M0ML0Bozv4xkw0-34">
          <mxGeometry relative="1" as="geometry" />
        </mxCell>
        <mxCell id="3mii3_M0ML0Bozv4xkw0-25" value="Infra Service" style="rounded=1;whiteSpace=wrap;html=1;" vertex="1" parent="1">
          <mxGeometry x="501.5" y="362.04" width="120" height="60" as="geometry" />
        </mxCell>
        <mxCell id="3mii3_M0ML0Bozv4xkw0-34" value="Azure Resource&lt;div&gt;Manager&lt;/div&gt;" style="rounded=1;whiteSpace=wrap;html=1;" vertex="1" parent="1">
          <mxGeometry x="503" y="510" width="120" height="60" as="geometry" />
        </mxCell>
        <mxCell id="3mii3_M0ML0Bozv4xkw0-37" style="edgeStyle=orthogonalEdgeStyle;rounded=0;orthogonalLoop=1;jettySize=auto;html=1;exitX=0.5;exitY=0;exitDx=0;exitDy=0;entryX=0.842;entryY=0.905;entryDx=0;entryDy=0;entryPerimeter=0;" edge="1" parent="1" source="3mii3_M0ML0Bozv4xkw0-25" target="Xp83edgv-1D5uqsxEIea-45">
          <mxGeometry relative="1" as="geometry" />
        </mxCell>
        <mxCell id="3mii3_M0ML0Bozv4xkw0-39" style="edgeStyle=orthogonalEdgeStyle;rounded=0;orthogonalLoop=1;jettySize=auto;html=1;exitX=0.25;exitY=0;exitDx=0;exitDy=0;entryX=0.186;entryY=1.065;entryDx=0;entryDy=0;entryPerimeter=0;" edge="1" parent="1" source="Xp83edgv-1D5uqsxEIea-44" target="Xp83edgv-1D5uqsxEIea-45">
          <mxGeometry relative="1" as="geometry" />
        </mxCell>
        <mxCell id="3mii3_M0ML0Bozv4xkw0-40" value="K8S Orchestrator" style="rounded=1;whiteSpace=wrap;html=1;" vertex="1" parent="1">
          <mxGeometry x="120.64999999999998" y="510" width="120" height="60" as="geometry" />
        </mxCell>
      </root>
    </mxGraphModel>
  </diagram>
</mxfile>
